<svg id="svg" xmlns="http://www.w3.org/2000/svg" xmlns:xlink="http://www.w3.org/1999/xlink" width="400" height="400" viewBox="0, 0, 400,400"><g id="svgg"><path id="path0" d="M137.975 14.135 C 128.532 17.383,120.846 24.017,116.460 32.706 L 114.081 37.418 186.142 37.699 C 257.454 37.976,258.271 37.997,264.724 39.699 C 283.672 44.696,297.993 56.691,306.246 74.474 C 312.469 87.885,311.997 76.951,312.292 214.648 L 312.555 337.500 322.318 337.500 C 342.186 337.500,355.191 328.877,360.871 311.939 C 363.436 304.288,363.442 45.738,360.877 38.061 C 357.022 26.524,348.502 18.006,336.939 14.129 C 329.415 11.606,145.312 11.612,137.975 14.135 M63.095 64.017 C 51.775 67.636,42.071 77.593,38.739 89.009 C 36.645 96.180,36.875 354.883,38.980 361.648 C 42.563 373.161,52.456 382.889,64.009 386.261 C 70.457 388.143,254.543 388.143,260.991 386.261 C 272.544 382.889,282.437 373.161,286.020 361.648 C 288.331 354.223,288.331 95.777,286.020 88.352 C 282.437 76.839,272.544 67.111,260.991 63.739 C 253.994 61.696,69.543 61.956,63.095 64.017 " stroke="none" fill="#000000" fill-rule="evenodd"></path></g></svg>