<svg id="svg" xmlns="http://www.w3.org/2000/svg" xmlns:xlink="http://www.w3.org/1999/xlink" width="400" height="400" viewBox="0, 0, 400,400"><g id="svgg"><path id="path0" d="M160.384 2.685 C 39.817 27.973,-29.676 151.618,11.723 267.188 C 15.235 276.992,21.822 291.406,22.790 291.406 C 23.319 291.406,43.996 280.893,45.168 280.027 C 45.304 279.927,44.303 277.642,42.943 274.949 C -8.163 173.709,57.826 45.572,170.508 27.243 L 176.563 26.258 176.503 23.480 C 176.471 21.953,175.851 16.309,175.125 10.938 L 173.807 1.172 171.474 1.010 C 170.190 0.921,165.200 1.675,160.384 2.685 M224.567 12.695 C 223.736 19.248,223.054 24.940,223.052 25.345 C 223.049 25.749,226.444 26.680,230.597 27.412 C 324.362 43.957,388.264 135.842,371.074 229.406 C 350.734 340.111,235.944 402.483,131.541 359.558 L 127.535 357.911 122.257 369.607 C 119.355 376.039,117.114 381.426,117.279 381.577 C 118.182 382.405,136.698 389.274,143.372 391.256 C 179.123 401.876,221.913 401.731,257.747 390.868 C 343.156 364.976,399.601 288.876,399.608 199.609 C 399.615 105.133,339.422 27.911,247.656 4.669 C 240.904 2.959,229.511 0.784,227.296 0.782 C 226.310 0.781,225.787 3.063,224.567 12.695 M46.518 306.257 C 40.978 310.127,36.294 313.446,36.109 313.630 C 35.747 313.993,45.942 327.356,50.387 332.344 L 53.103 335.391 57.215 331.620 C 59.477 329.545,63.721 325.574,66.645 322.793 L 71.962 317.738 69.590 314.924 C 68.286 313.376,65.015 309.226,62.320 305.703 C 56.398 297.958,58.502 297.884,46.518 306.257 M85.085 336.914 C 83.575 338.740,79.974 343.111,77.082 346.626 L 71.824 353.018 77.123 357.238 C 87.167 365.239,93.682 369.165,94.829 367.909 C 95.811 366.833,107.813 347.815,107.813 347.334 C 107.813 347.203,105.791 345.764,103.320 344.137 C 100.850 342.509,96.669 339.471,94.030 337.386 C 88.220 332.794,88.480 332.808,85.085 336.914 " stroke="none" fill="#000000" fill-rule="evenodd"></path></g></svg>